<svg xmlns="http://www.w3.org/2000/svg" id="email-icon" data-name="Layer 1" viewBox="0 0 100 125" x="0px" y="0px">
    <title>email</title>
    <g data-name="6">
        <path class="img-top" d="M50.77154,54.50915a1.51724,1.51724,0,0,1-1.54308,0L29.91454,43.104a.42978.42978,0,0,0-.64831.37007V60.79647a3.26009,3.26009,0,0,0,3.26009,3.26009H67.4737a3.26008,3.26008,0,0,0,3.26008-3.26008V43.47406a.42978.42978,0,0,0-.6483-.37007Z" fill="#ef4619" />
        <path class="img-bottom" d="M50.85729,50.93413l19.65409-11.606a.42622.42622,0,0,0,.2107-.4001,3.26437,3.26437,0,0,0-3.24839-2.98455H32.52631A3.26437,3.26437,0,0,0,29.27793,38.928a.42623.42623,0,0,0,.21069.4001l19.65411,11.606A1.686,1.686,0,0,0,50.85729,50.93413Z" fill="#ef4619"/>
    </g>
</svg>